<?xml version="1.0" standalone="no"?>
<!DOCTYPE svg PUBLIC "-//W3C//DTD SVG 20010904//EN"
 "http://www.w3.org/TR/2001/REC-SVG-20010904/DTD/svg10.dtd">
<svg version="1.0" xmlns="http://www.w3.org/2000/svg"
 width="512.000000pt" height="512.000000pt" viewBox="0 0 512.000000 512.000000"
 preserveAspectRatio="xMidYMid meet">

<g transform="translate(0.000000,512.000000) scale(0.100000,-0.100000)"
fill="#000000" stroke="none">
<path d="M0 3090 l0 -2029 2560 0 2560 0 0 2029 0 2030 -2560 0 -2560 0 0
-2030z m2988 578 c63 -32 92 -83 92 -161 0 -72 -18 -117 -61 -149 -50 -37 -92
-48 -183 -48 -97 0 -169 28 -207 81 -20 29 -24 46 -24 109 0 64 4 80 25 110
13 19 31 41 40 47 57 47 236 53 318 11z m-710 -1040 l2 -988 -170 0 -170 0 0
210 0 210 -25 0 c-14 0 -27 -6 -29 -12 -83 -319 -227 -448 -495 -448 -269 1
-482 184 -562 485 -30 114 -38 366 -15 488 54 283 187 462 395 528 95 30 252
30 340 0 149 -51 246 -165 311 -363 19 -59 25 -68 45 -68 13 0 26 4 29 8 3 5
-6 71 -20 148 -35 201 -44 341 -37 582 l6 212 196 -2 196 -3 3 -987z m2051
495 l54 -6 -7 -210 c-3 -116 -8 -213 -10 -215 -3 -2 -15 2 -28 10 -15 8 -61
13 -138 13 -100 0 -122 -3 -167 -24 -96 -43 -166 -143 -204 -289 -17 -67 -19
-112 -19 -419 l0 -343 -200 0 -200 0 0 725 0 725 165 0 165 0 0 -245 0 -245
29 0 c27 0 29 2 35 59 10 86 43 197 78 263 80 150 248 225 447 201z m-1289
-758 l0 -725 -200 0 -200 0 0 725 0 725 200 0 200 0 0 -725z"/>
<path d="M1413 2781 c-89 -41 -159 -143 -183 -268 -20 -98 -8 -293 21 -372 29
-77 97 -156 163 -189 64 -32 172 -33 245 -2 207 90 284 450 146 686 -34 58
-116 129 -172 148 -64 22 -167 20 -220 -3z"/>
<path d="M1660 610 l0 -200 40 0 40 0 0 138 0 137 47 -138 47 -138 40 3 40 3
43 125 43 125 0 -127 0 -128 45 0 45 0 -2 198 -3 197 -56 3 c-37 2 -59 -1 -66
-10 -13 -17 -83 -221 -83 -245 -1 -10 -16 27 -34 82 -19 55 -41 117 -49 138
-16 37 -16 37 -76 37 l-61 0 0 -200z"/>
<path d="M2353 798 c-9 -11 -133 -369 -133 -383 0 -3 22 -5 49 -5 l48 0 13 45
13 46 65 -3 65 -3 15 -42 c14 -43 14 -43 64 -43 44 0 49 2 43 19 -3 11 -34
100 -69 198 l-63 178 -50 3 c-32 2 -53 -2 -60 -10z m77 -162 l19 -66 -41 0
c-37 0 -40 2 -34 23 4 12 12 43 18 69 6 27 13 46 15 44 2 -2 12 -33 23 -70z"/>
<path d="M2730 611 l0 -201 45 0 45 0 0 57 c0 44 5 62 22 80 l21 23 54 -80 53
-80 50 0 c28 0 50 3 50 6 0 3 -29 48 -65 100 -36 51 -68 99 -71 107 -3 9 22
46 65 95 39 43 68 82 64 86 -3 3 -26 6 -49 6 -48 0 -59 -9 -142 -114 l-47 -59
-5 84 -5 84 -42 3 -43 3 0 -200z"/>
<path d="M3207 804 c-4 -4 -7 -94 -7 -201 l0 -193 135 0 135 0 0 35 0 35 -90
0 -90 0 0 45 0 44 83 3 82 3 0 35 0 35 -82 3 -83 3 0 39 0 40 91 0 90 0 -3 38
-3 37 -126 3 c-69 1 -128 -1 -132 -4z"/>
</g>
</svg>
