<?xml version="1.0" encoding="UTF-8"?>
<svg version="1.1" xmlns="http://www.w3.org/2000/svg" width="512" height="512">
<path d="M0 0 C168.96 0 337.92 0 512 0 C512 168.96 512 337.92 512 512 C343.04 512 174.08 512 0 512 C0 343.04 0 174.08 0 0 Z " fill="#000000" transform="translate(0,0)"/>
<path d="M0 0 C168.96 0 337.92 0 512 0 C512 35.31 512 70.62 512 107 C343.04 107 174.08 107 0 107 C0 71.69 0 36.38 0 0 Z " fill="#1DE7B5" transform="translate(0,405)"/>
<path d="M0 0 C5.07201786 -0.02471188 10.14400071 -0.04286564 15.21606445 -0.05493164 C16.9416566 -0.05996158 18.66724448 -0.06678626 20.39282227 -0.07543945 C22.8725693 -0.08756361 25.35226 -0.09324169 27.83203125 -0.09765625 C28.60400345 -0.10281754 29.37597565 -0.10797882 30.17134094 -0.11329651 C33.3830228 -0.11363318 35.93020266 -0.02326578 39 1 C39 66.01 39 131.02 39 198 C28.44 198 17.88 198 7 198 C7 184.14 7 170.28 7 156 C5.02 156.33 3.04 156.66 1 157 C0.70867187 158.11117187 0.41734375 159.22234375 0.1171875 160.3671875 C-3.69555442 174.41097123 -9.31263878 187.54114508 -22 195.875 C-34.05753 202.73124255 -48.59176587 204.17281465 -62.01953125 200.90625 C-70.86823613 198.43782716 -78.37056748 195.55875626 -85 189 C-85.65613281 188.46375 -86.31226562 187.9275 -86.98828125 187.375 C-96.80543176 178.83503218 -102.89041662 164.38999804 -106 152 C-106.17225098 151.34016113 -106.34450195 150.68032227 -106.52197266 150.00048828 C-108.39260278 141.98613843 -108.48368855 133.93542444 -108.5 125.75 C-108.5023465 125.00077271 -108.50469299 124.25154541 -108.5071106 123.47961426 C-108.49005364 110.27788457 -106.88489862 98.36929982 -102 86 C-101.72736328 85.30519531 -101.45472656 84.61039062 -101.17382812 83.89453125 C-94.98561803 68.78758192 -83.97784578 58.07915965 -69.0078125 51.7265625 C-63.00307783 49.55364295 -57.14024089 49.7791769 -50.8125 49.75 C-49.71357422 49.729375 -48.61464844 49.70875 -47.48242188 49.6875 C-35.9780269 49.63261917 -25.90586752 52.75033998 -17.1875 60.5 C-13.17498991 65.08572582 -9.82136902 69.68707332 -6.9375 75.0625 C-6.58751953 75.71355713 -6.23753906 76.36461426 -5.87695312 77.03540039 C-2.89192406 82.80238098 -1.14388926 88.60136943 0 95 C1.98 95 3.96 95 6 95 C5.85377197 94.21874756 5.70754395 93.43749512 5.55688477 92.63256836 C4.89056112 89.06782937 4.22651072 85.50267051 3.5625 81.9375 C3.33240234 80.70837891 3.10230469 79.47925781 2.86523438 78.21289062 C2.53168945 76.41948242 2.53168945 76.41948242 2.19140625 74.58984375 C1.88505249 72.94810181 1.88505249 72.94810181 1.57250977 71.27319336 C1.38358154 70.19303955 1.19465332 69.11288574 1 68 C0.71866211 66.49759766 0.71866211 66.49759766 0.43164062 64.96484375 C-0.22104207 58.9696136 -0.12161375 52.99847075 -0.09765625 46.97265625 C-0.0957884 45.61502637 -0.09436623 44.25739581 -0.09336853 42.89976501 C-0.08957222 39.34717916 -0.07976696 35.79463496 -0.06866455 32.24206543 C-0.05838801 28.60864831 -0.0538576 24.97522438 -0.04882812 21.34179688 C-0.03814177 14.22784767 -0.02110049 7.11392657 0 0 Z " fill="#FDFDFD" transform="translate(188,150)"/>
<path d="M0 0 C0.763125 -0.00386719 1.52625 -0.00773438 2.3125 -0.01171875 C5.58851362 -0.00597136 8.24637676 0.08212559 11.375 1.125 C11.58138953 30.05763641 11.58138953 30.05763641 10.375 44.125 C9.715 44.125 9.055 44.125 8.375 44.125 C8.375 43.465 8.375 42.805 8.375 42.125 C4.08370075 41.97822329 -0.20694224 41.89043414 -4.5 41.8125 C-6.30597656 41.7496582 -6.30597656 41.7496582 -8.1484375 41.68554688 C-16.31836343 41.57454245 -21.68520827 42.86393857 -28.625 47.125 C-29.71590942 47.64114868 -29.71590942 47.64114868 -30.82885742 48.16772461 C-33.17984203 49.42070961 -33.58759504 50.71495877 -34.625 53.125 C-35.388125 54.1975 -36.15125 55.27 -36.9375 56.375 C-44.21660436 68.06732714 -45.37197235 81.0355336 -45.33203125 94.4375 C-45.34519081 96.02890886 -45.3605078 97.62030118 -45.37785339 99.21166992 C-45.41721985 103.3412379 -45.42786204 107.4703643 -45.43188477 111.60009766 C-45.44297437 116.58656034 -45.49086769 121.57279755 -45.53237152 126.55908203 C-45.59097291 134.08124894 -45.60371641 141.6022194 -45.625 149.125 C-58.825 149.125 -72.025 149.125 -85.625 149.125 C-85.625 101.275 -85.625 53.425 -85.625 4.125 C-74.735 4.125 -63.845 4.125 -52.625 4.125 C-52.625 20.625 -52.625 37.125 -52.625 54.125 C-50.645 54.125 -48.665 54.125 -46.625 54.125 C-46.66625 52.990625 -46.7075 51.85625 -46.75 50.6875 C-46.68182163 37.64270493 -41.54169929 21.71197737 -32.73046875 12.046875 C-23.49343383 3.05948967 -12.55934209 -0.06429697 0 0 Z " fill="#FCFCFC" transform="translate(426.625,198.875)"/>
<path d="M0 0 C9.67254988 9.60561182 14.27141563 21.11248324 14.5703125 34.6171875 C14.40604163 44.96625239 11.60923303 52.48531754 6.2578125 61.2421875 C5.5978125 61.2421875 4.9378125 61.2421875 4.2578125 61.2421875 C4.2165625 61.7990625 4.1753125 62.3559375 4.1328125 62.9296875 C2.76804142 66.5365825 0.34701074 67.97257246 -2.7421875 70.2421875 C-3.4021875 70.2421875 -4.0621875 70.2421875 -4.7421875 70.2421875 C-4.7421875 70.9021875 -4.7421875 71.5621875 -4.7421875 72.2421875 C-5.7321875 72.2421875 -6.7221875 72.2421875 -7.7421875 72.2421875 C-7.7421875 72.9021875 -7.7421875 73.5621875 -7.7421875 74.2421875 C-20.47055667 79.90620728 -20.47055667 79.90620728 -26.7421875 80.2421875 C-27.61101562 80.3040625 -28.47984375 80.3659375 -29.375 80.4296875 C-41.92769856 80.95408222 -52.89505881 76.98817726 -62.7421875 69.2421875 C-67.04204764 65.23203425 -69.8992407 62.18393443 -70.7421875 56.2421875 C-71.4021875 56.2421875 -72.0621875 56.2421875 -72.7421875 56.2421875 C-75.26013294 49.87119997 -77.29992294 44.09728819 -77.7421875 37.2421875 C-77.79375 36.55898437 -77.8453125 35.87578125 -77.8984375 35.171875 C-78.46018292 22.11129394 -73.39500258 11.07600075 -64.7421875 1.5546875 C-46.61788007 -15.65425087 -18.91204664 -16.11476643 0 0 Z " fill="#000000" transform="translate(441.7421875,45.7578125)"/>
<path d="M0 0 C13.2 0 26.4 0 40 0 C40 47.85 40 95.7 40 145 C26.8 145 13.6 145 0 145 C0 97.15 0 49.3 0 0 Z " fill="#FCFCFC" transform="translate(264,203)"/>
<path d="M0 0 C0.87253418 0.00644531 1.74506836 0.01289063 2.64404297 0.01953125 C14.95313995 0.36492219 24.45622709 4.93006859 33.25 13.5 C41.69368858 22.5760353 46.05491258 34.31941551 46.31640625 46.625 C45.94745526 55.92703717 43.64127917 66.37389462 37.25 73.5 C36.59 73.5 35.93 73.5 35.25 73.5 C35.17910156 74.0775 35.10820313 74.655 35.03515625 75.25 C32.8420921 81.53460173 24.10253262 85.92338153 18.33203125 88.7109375 C12.12238931 91.06431024 6.57577752 91.88817923 0 91.875 C-0.83684326 91.87338867 -1.67368652 91.87177734 -2.53588867 91.87011719 C-9.1622663 91.73929545 -14.86613826 90.70398521 -20.75 87.5 C-21.77126984 86.96362411 -22.79253967 86.42724823 -23.84475708 85.87461853 C-26.75 83.5 -26.75 83.5 -27.52536011 80.20533752 C-27.53616608 78.89693405 -27.54697205 77.58853058 -27.55810547 76.24047852 C-27.57183197 75.51640808 -27.58555847 74.79233765 -27.59970093 74.04632568 C-27.63626028 71.65638454 -27.62856381 69.26906654 -27.6171875 66.87890625 C-27.62631076 65.21507412 -27.6369218 63.55124954 -27.6489563 61.88743591 C-27.66682263 58.40112688 -27.66197067 54.91573396 -27.64208984 51.42944336 C-27.61910987 46.96502408 -27.6595171 42.50376876 -27.71792412 38.03976536 C-27.7546507 34.60373407 -27.75406389 31.16846097 -27.74264908 27.73228264 C-27.74234263 26.08683775 -27.75443455 24.4413415 -27.77923203 22.79608345 C-27.94531014 9.96970754 -27.94531014 9.96970754 -25.0567627 6.4180603 C-22.97630643 5.07319696 -21.10574524 4.24383807 -18.75 3.5 C-17.95561523 3.12810547 -17.16123047 2.75621094 -16.34277344 2.37304688 C-10.84827552 0.56048478 -5.77672176 -0.04499881 0 0 Z " fill="#000000" transform="translate(26.75,164.5)"/>
<path d="M0 0 C0.63550781 0.44085938 1.27101563 0.88171875 1.92578125 1.3359375 C10.54779326 7.95060747 15.80143087 18.53062321 18 29 C18.72588231 36.25882308 18.57583092 41.56350434 15 48 C14.8504653 49.60057513 14.75135808 51.20622371 14.6875 52.8125 C14.23081799 58.77622981 11.73728496 62.45763098 8 67 C7.48308594 67.6290625 6.96617187 68.258125 6.43359375 68.90625 C-0.30849729 76.31442715 -8.42606795 79.60651699 -18 82 C-18 68.8 -18 55.6 -18 42 C-31.53 42 -45.06 42 -59 42 C-59 51.24 -59 60.48 -59 70 C-59.99 69.67 -60.98 69.34 -62 69 C-62 68.01 -62 67.02 -62 66 C-62.66 66 -63.32 66 -64 66 C-65.35501833 63.67711144 -66.68426962 61.34504327 -68 59 C-68.35835937 58.38640625 -68.71671875 57.7728125 -69.0859375 57.140625 C-74.73829473 46.85588478 -75.05468533 35.34157575 -72.28125 24.08203125 C-68.27135445 11.82765217 -60.33320166 2.09697732 -48.875 -3.8125 C-32.34435543 -11.50997572 -14.98953563 -10.77124153 0 0 Z " fill="#000000" transform="translate(246,108)"/>
<path d="M0 0 C11.05240963 6.4065507 17.28723931 16.04055666 20.6796875 28.36328125 C21.62498811 32.48439494 21.84663349 36.46957579 21.8125 40.6875 C21.80686035 41.42693848 21.8012207 42.16637695 21.79541016 42.92822266 C21.51465314 55.74575321 17.57659623 67.35676815 8.6875 76.8125 C0.79365886 84.02379097 -5.12102558 86.20767715 -15.9765625 85.78515625 C-24.34677312 84.95927072 -29.84873261 81.69643055 -35.5 75.4375 C-45.29359515 61.43551648 -47.13648801 45.37685011 -45.0390625 28.79296875 C-43.15893986 19.64672509 -39.7667876 9.67666107 -32.5 3.4375 C-31.84 3.4375 -31.18 3.4375 -30.5 3.4375 C-30.5 2.7775 -30.5 2.1175 -30.5 1.4375 C-21.05854671 -4.29389712 -9.97908486 -4.6702618 0 0 Z " fill="#040404" transform="translate(166.5,234.5625)"/>
<path d="M0 0 C2.02490249 1.79002804 3.88685901 3.61079383 5.6953125 5.6171875 C6.9723475 7.12936566 6.9723475 7.12936566 9 8 C12 12.5 12 12.5 12 15 C12.66 15 13.32 15 14 15 C22.04206948 29.36764982 24.41566275 45.09058549 20.9375 61.25 C17.46653712 72.90597767 11.71963033 82.52427542 3 91 C2.38640625 91.63421875 1.7728125 92.2684375 1.140625 92.921875 C-9.89525613 103.58046105 -23.85907638 107.34303636 -38.8112793 107.30761719 C-47.7174701 107.0930862 -56.36803262 105.79617982 -64 101 C-64.83015625 100.6803125 -65.6603125 100.360625 -66.515625 100.03125 C-80.37887578 94.27669307 -89.56473436 80.02516741 -95.26513672 66.80810547 C-96.87445393 62.84843662 -97.71404089 59.25896551 -98 55 C-98.09152344 53.72640625 -98.18304688 52.4528125 -98.27734375 51.140625 C-98.97099489 36.53373935 -94.60504868 23.5338339 -87 11 C-86.34 10.67 -85.68 10.34 -85 10 C-84.67 9.01 -84.34 8.02 -84 7 C-82.07421875 5.31640625 -82.07421875 5.31640625 -79.6875 3.5625 C-77.29377394 1.79391232 -75.11183567 0.1163091 -73.046875 -2.03125 C-52.96703915 -21.3446799 -20.23263411 -14.25830988 0 0 Z M-73.1015625 16.625 C-80.84957884 26.31799163 -85.28822042 37.42874552 -84 50 C-83.06055609 56.57610739 -81.25920397 62.76459705 -79 69 C-78.34 69 -77.68 69 -77 69 C-76.79375 69.845625 -76.5875 70.69125 -76.375 71.5625 C-72.95935915 80.10160212 -65.98564601 84.87442329 -58 89 C-44.45065346 94.65943222 -31.90297715 94.20075674 -18.4375 88.875 C-16.95543332 88.25690827 -15.47515555 87.63440928 -14 87 C-14 86.34 -14 85.68 -14 85 C-13.01 85 -12.02 85 -11 85 C-11 84.34 -11 83.68 -11 83 C-9.88625 82.62875 -9.88625 82.62875 -8.75 82.25 C-5.75026545 80.8864843 -4.07922733 79.54127785 -2 77 C-2 76.01 -2 75.02 -2 74 C-1.01 73.67 -0.02 73.34 1 73 C8.2316348 61.99160638 9.7552571 49.34385369 7.34765625 36.52734375 C3.8863114 24.06353117 -2.67013459 14.03991857 -13.7890625 7.3125 C-33.56629088 -3.31712146 -57.70291595 -0.31923561 -73.1015625 16.625 Z " fill="#404040" transform="translate(448,33)"/>
<path d="M0 0 C17.07707222 13.92438197 17.07707222 13.92438197 18 22 C18.66 22 19.32 22 20 22 C22.74341572 30.026086 24.65954675 37.50569131 25 46 C25.96679688 45.94199219 26.93359375 45.88398438 27.9296875 45.82421875 C37.35961793 45.49743898 44.2007418 46.28151265 51.71875 52.3984375 C55.96711055 57.0480321 55.5218335 62.59258492 55.46875 68.59765625 C54.80282397 73.43116932 53.24822491 76.78644801 49.75 80.1875 C43.56708382 84.26260385 38.48614238 85.55957128 31.1875 85.5 C30.39649902 85.49572998 29.60549805 85.49145996 28.79052734 85.48706055 C20.82051835 85.25572593 15.06452067 83.13926508 9.4375 77.375 C6.15721398 71.955397 6.50489781 66.15577053 7 60 C7.495 59.030625 7.99 58.06125 8.5 57.0625 C11.85415764 50.21442816 10.58266754 41.97624427 8.4375 34.875 C3.78241402 22.58038267 -3.52707137 13.39992847 -15.5 7.625 C-25.97821694 3.4484973 -36.18308802 2.95446167 -47 6 C-47.87914062 6.24492188 -48.75828125 6.48984375 -49.6640625 6.7421875 C-61.072864 10.3737215 -69.17964789 17.59766856 -75 28 C-81.02649274 40.34696074 -81.12633861 53.01141141 -77 66 C-75.83080146 68.5344517 -74.57410321 70.87195158 -73.0859375 73.23046875 C-72 75 -72 75 -71 78 C-70.34 78 -69.68 78 -69 78 C-68.67 78.99 -68.34 79.98 -68 81 C-67.34 81.33 -66.68 81.66 -66 82 C-66 72.76 -66 63.52 -66 54 C-65.67 54 -65.34 54 -65 54 C-65 73.14 -65 92.28 -65 112 C-65.33 112 -65.66 112 -66 112 C-65.96777344 111.21496094 -65.93554688 110.42992187 -65.90234375 109.62109375 C-65.85124833 103.32321318 -65.85124833 103.32321318 -68.75390625 97.99609375 C-70.29936184 96.88067798 -71.87045902 95.80022071 -73.4609375 94.75 C-82.97504806 88.19258226 -90.26625312 76.94849252 -93.375 65.875 C-95.6418281 51.82066576 -95.33006334 39.35189779 -90 26 C-89.60425781 25.00355469 -89.20851562 24.00710937 -88.80078125 22.98046875 C-86.54124988 17.65595792 -84.42479739 13.85751567 -80 10 C-79.401875 9.195625 -78.80375 8.39125 -78.1875 7.5625 C-75.24770084 4.11873526 -71.83122301 1.41317294 -68 -1 C-67.34 -1 -66.68 -1 -66 -1 C-66 -1.66 -66 -2.32 -66 -3 C-43.24884016 -13.60641259 -21.38933488 -14.50839559 0 0 Z " fill="#414141" transform="translate(253,96)"/>
<path d="M0 0 C11.58688402 -0.02312228 23.17376259 -0.0409145 34.76066494 -0.05181217 C40.14033762 -0.05704125 45.51999458 -0.06413935 50.8996582 -0.07543945 C56.08674843 -0.08626745 61.27382349 -0.09227665 66.46092415 -0.09487724 C68.4445628 -0.09673165 70.42820058 -0.10035256 72.41183281 -0.10573006 C75.18009136 -0.11293932 77.94828638 -0.11399099 80.71655273 -0.11352539 C81.54517319 -0.11712067 82.37379364 -0.12071594 83.2275238 -0.12442017 C88.88594784 -0.11405216 88.88594784 -0.11405216 90 1 C92.47739018 13.6622165 91.1564903 25.96490398 84.0625 37 C81.63533443 40.33658457 79.12818402 43.30628598 76 46 C75.34 46 74.68 46 74 46 C73.67 46.99 73.34 47.98 73 49 C61.90664082 56.23234283 48.6822935 59.87832022 35.6171875 57.34375 C25.72901222 54.86636699 17.87919202 50.59512603 11 43 C11 42.34 11 41.68 11 41 C10.01 40.67 9.02 40.34 8 40 C6.46484375 37.453125 6.46484375 37.453125 4.9375 34.25 C4.43089844 33.20328125 3.92429687 32.1565625 3.40234375 31.078125 C-1.17781375 21.02474307 -2.28599185 10.85335355 0 0 Z " fill="#000000" transform="translate(21,0)"/>
<path d="M0 0 C1.65 0 3.3 0 5 0 C5 14.19 5 28.38 5 43 C14.9 43 24.8 43 35 43 C35 54.82716901 30.07842646 63.53017691 22 72 C12.71239646 80.94276677 -1.46886379 84.44477584 -13.9765625 84.2734375 C-26.22187149 83.16598061 -37.46989846 77.59974239 -45.375 68.1875 C-50.2638275 61.59210028 -53.87579783 55.18892524 -55 47 C-53.63681641 46.99613281 -53.63681641 46.99613281 -52.24609375 46.9921875 C-38.69595127 46.57526004 -25.80284048 42.95721592 -16 33 C-8.73979651 24.98688652 -5.34101908 16.07625819 -2 6 C-1.61585938 4.85144531 -1.23171875 3.70289063 -0.8359375 2.51953125 C-0.56007812 1.68808594 -0.28421875 0.85664063 0 0 Z " fill="#010101" transform="translate(189,306)"/>
<path d="M0 0 C1.32 0 2.64 0 4 0 C4 13.2 4 26.4 4 40 C18.70655849 33.8722673 26.78574841 28.49294235 36 16 C36.5878125 17.3303125 36.5878125 17.3303125 37.1875 18.6875 C39.07748446 22.14160952 41.12182516 24.34322323 44 27 C44.99 27.99 44.99 27.99 46 29 C45.01 29 44.02 29 43 29 C42.731875 29.58136719 42.46375 30.16273438 42.1875 30.76171875 C36.44930413 41.57746294 24.40939268 49.32347133 13 53 C11.44254464 53.2148207 9.88071312 53.39932312 8.31665039 53.55908203 C7.10338829 53.68550583 7.10338829 53.68550583 5.86561584 53.81448364 C5.24996262 53.87570404 4.63430939 53.93692444 4 54 C3.99168029 67.50052693 4.01565145 81.00057982 4.0802784 94.50096607 C4.10928858 100.77051993 4.12738436 107.03970109 4.12011719 113.30932617 C4.11350586 119.36559312 4.1361129 125.42112478 4.17855453 131.47723961 C4.18965346 133.78193226 4.19041513 136.08669976 4.18042374 138.39139748 C3.66274744 153.9191491 3.66274744 153.9191491 9.53878784 167.87748718 C15.83207278 177.01892354 16.18967842 192.38519683 15 203 C11.74358952 219.13838724 2.76618318 234.12420445 -10.77734375 243.62890625 C-15.35408791 246.45217022 -20.08854221 248.8178451 -25 251 C-25.76699219 251.34417969 -26.53398437 251.68835938 -27.32421875 252.04296875 C-32.98999227 254.14909399 -38.58553828 254.27211902 -44.5625 254.3125 C-45.35406494 254.31813965 -46.14562988 254.3237793 -46.96118164 254.32958984 C-56.01426632 254.21885449 -63.49134779 252.251362 -71.4375 247.9375 C-72.17540771 247.53901855 -72.91331543 247.14053711 -73.67358398 246.72998047 C-88.96812971 238.19403626 -98.50105055 225.22704432 -103.74609375 208.640625 C-104.73395864 205.01618278 -105.07047145 201.73498684 -105 198 C-104.37738281 198.2165625 -103.75476563 198.433125 -103.11328125 198.65625 C-92.83460754 201.75275422 -82.63704589 201.29148735 -72 201 C-75.68087353 203.45391569 -78.44355588 203.22802759 -82.6875 203.125 C-83.38939453 203.11597656 -84.09128906 203.10695313 -84.81445312 203.09765625 C-86.54311525 203.07413704 -88.27160145 203.03826713 -90 203 C-84.47744192 217.10014828 -78.78510823 227.73743362 -65 235 C-51.67920823 240.52207368 -39.73485822 240.25001234 -26.53051758 234.85986328 C-20.1965507 232.2821325 -20.1965507 232.2821325 -15 228 C-14.34 228 -13.68 228 -13 228 C-12.72929687 227.41476562 -12.45859375 226.82953125 -12.1796875 226.2265625 C-11.01117363 224.0210893 -9.70550865 222.29945354 -8.125 220.375 C-3.05579679 213.71934689 -1.17715872 207.24011102 0 199 C-9.9 199 -19.8 199 -30 199 C-30 184.81 -30 170.62 -30 156 C-29.67 156 -29.34 156 -29 156 C-29 169.86 -29 183.72 -29 198 C-18.44 198 -7.88 198 3 198 C3 132.99 3 67.98 3 1 C2.01 0.67 1.02 0.34 0 0 Z " fill="#444444" transform="translate(224,150)"/>
<path d="M0 0 C0.94746094 0.42410156 1.89492188 0.84820312 2.87109375 1.28515625 C10.81667004 5.24141407 17.6283535 10.76257809 23.16015625 17.71484375 C24.79637714 20.07161527 24.79637714 20.07161527 27 21 C27.625 23.5625 27.625 23.5625 28 26 C28.66 26 29.32 26 30 26 C30.63121136 27.35128257 31.25459835 28.70622047 31.875 30.0625 C32.22304687 30.81660156 32.57109375 31.57070312 32.9296875 32.34765625 C38.22633185 45.47328222 38.29849891 63.00477115 33.25390625 76.2578125 C32.63322266 77.61519531 32.63322266 77.61519531 32 79 C31.57589844 79.94617188 31.15179688 80.89234375 30.71484375 81.8671875 C23.53218093 96.31254281 10.93840521 107.3105154 -4.18310547 112.79125977 C-10.29106036 114.80550894 -15.83592999 115.51061872 -22.25 115.4375 C-23.15733887 115.43282715 -24.06467773 115.4281543 -24.99951172 115.42333984 C-33.77737182 115.23221278 -42.55473519 113.96350987 -50 109 C-50.22107787 106.2114711 -50.28107535 103.65346819 -50.1875 100.875 C-50.17396484 100.12089844 -50.16042969 99.36679688 -50.14648438 98.58984375 C-50.11109985 96.72625873 -50.05729167 94.86304022 -50 93 C-49.10796875 93.42152344 -48.2159375 93.84304687 -47.296875 94.27734375 C-46.12640625 94.82519531 -44.9559375 95.37304688 -43.75 95.9375 C-42.58984375 96.48277344 -41.4296875 97.02804688 -40.234375 97.58984375 C-34.62722491 100.03450701 -29.79515702 100.21274171 -23.75 100.25 C-22.92886719 100.270625 -22.10773437 100.29125 -21.26171875 100.3125 C-15.55440209 100.3486795 -11.17807123 99.36650098 -6 97 C-5.10152344 96.61199219 -4.20304687 96.22398437 -3.27734375 95.82421875 C2.04435925 93.2388839 7.01361619 90.46182408 11 86 C11.495 84.515 11.495 84.515 12 83 C12.62519531 82.40058594 13.25039063 81.80117187 13.89453125 81.18359375 C19.94854805 74.90493811 21.79251101 64.77487497 22.12890625 56.32421875 C21.64142087 43.75300489 17.39851627 31.96670881 8.8203125 22.625 C-0.37264765 14.41840896 -10.52769696 10.41188129 -22.75 10.5 C-24.05227539 10.50314209 -24.05227539 10.50314209 -25.38085938 10.50634766 C-33.07671702 10.69318186 -39.10940237 12.49089936 -46 16 C-47.98 16.99 -47.98 16.99 -50 18 C-50 12.39 -50 6.78 -50 1 C-34.17889959 -5.45334359 -16.026666 -7.23566777 0 0 Z " fill="#414141" transform="translate(50,155)"/>
<path d="M0 0 C4.62 0 9.24 0 14 0 C13.96519531 1.57587891 13.96519531 1.57587891 13.9296875 3.18359375 C13.68713387 18.36491712 15.92176202 32.74191764 27.04296875 44.2265625 C35.95209487 52.29990234 45.92782008 56.96686926 58.125 57.4375 C69.46507252 56.86308456 81.16492072 52.94713243 89.875 45.5625 C90.926875 44.2940625 90.926875 44.2940625 92 43 C92.47695312 42.52304687 92.95390625 42.04609375 93.4453125 41.5546875 C101.54963935 33.12455857 104.19388674 22.16056888 104.1015625 10.8046875 C103.96914026 7.14779636 103.54596218 3.61699946 103 0 C107.95 0 112.9 0 118 0 C122.2542435 12.76273049 117.95194989 27.53152438 112.375 39.125 C104.55855679 54.56502259 92.09127251 64.04277148 76.0703125 70.109375 C59.89570624 74.80124552 44.60318077 72.17341619 30 64.4375 C27.98996288 63.30936667 25.98903013 62.16477172 24 61 C23.14277344 60.53851563 22.28554688 60.07703125 21.40234375 59.6015625 C11.68562505 53.12375003 3.0304431 38.63257569 0.37890625 27.359375 C-1.35588241 18.21883335 -1.82904633 9.14523166 0 0 Z " fill="#414141" transform="translate(7,0)"/>
<path d="M0 0 C0.33 0 0.66 0 1 0 C1 47.85 1 95.7 1 145 C0.67 145 0.34 145 0 145 C0.04833984 143.17275391 0.04833984 143.17275391 0.09765625 141.30859375 C0.40590537 132.42120076 0.40590537 132.42120076 -2.82421875 124.4921875 C-5.1392257 122.80211452 -7.50082071 121.39970269 -10 120 C-20.88499052 111.05557131 -27.75280586 97.59339967 -29.25439453 83.63525391 C-30.46936273 64.69469944 -25.97456353 48.88191166 -13.4375 34.4375 C-9.90207523 30.72469232 -6.37275143 27.67719476 -2 25 C-1.34 25 -0.68 25 0 25 C0 16.75 0 8.5 0 0 Z " fill="#3B3B3B" transform="translate(340,203)"/>
<path d="M0 0 C0 17.16 0 34.32 0 52 C-16.17 52 -32.34 52 -49 52 C-47.07976292 44.31905166 -45.48487445 37.98332246 -42.125 31.0625 C-41.79886719 30.34771484 -41.47273438 29.63292969 -41.13671875 28.89648438 C-39.0205869 24.4460203 -36.71596717 21.33592507 -33 18 C-32.13375 17.13375 -31.2675 16.2675 -30.375 15.375 C-29.59125 14.59125 -28.8075 13.8075 -28 13 C-27.46375 12.401875 -26.9275 11.80375 -26.375 11.1875 C-25 10 -25 10 -22 10 C-22 9.34 -22 8.68 -22 8 C-20.35 7.67 -18.7 7.34 -17 7 C-17 6.34 -17 5.68 -17 5 C-11.80424477 2.56794436 -5.85263522 0 0 0 Z " fill="#3F3F3F" transform="translate(512,353)"/>
<path d="M0 0 C0.66 1.32 1.32 2.64 2 4 C2.66 4 3.32 4 4 4 C12.54689197 21.14061622 17.63517195 37.43489718 11.4375 56.3125 C8.89563139 63.52260809 5.66115617 69.90148289 1 76 C0.18402344 77.08667969 0.18402344 77.08667969 -0.6484375 78.1953125 C-9.51093965 89.13821421 -22.31657371 95.5324969 -36 98 C-36 93.05 -36 88.1 -36 83 C-25.25 79 -25.25 79 -23 79 C-23 78.34 -23 77.68 -23 77 C-22.01 77 -21.02 77 -20 77 C-20 76.34 -20 75.68 -20 75 C-18.34151823 73.98648336 -16.67334039 72.98879205 -15 72 C-12.31979608 69.61759651 -11.14462392 68.43387177 -10 65 C-9.53851563 64.56300781 -9.07703125 64.12601562 -8.6015625 63.67578125 C-6.4455734 61.41988046 -5.5559128 59.06733336 -4.375 56.1875 C-3.94960938 55.17042969 -3.52421875 54.15335937 -3.0859375 53.10546875 C0.85317279 41.84074687 -0.61931787 29.71339543 -5.359375 18.8984375 C-7.99279749 13.86235635 -10.6671791 9.69564136 -15 6 C-18.21524305 7.40844718 -20.32183868 9.10344786 -22.75 11.625 C-23.36359375 12.25664062 -23.9771875 12.88828125 -24.609375 13.5390625 C-25.06828125 14.02117187 -25.5271875 14.50328125 -26 15 C-26 12 -26 12 -23.8125 9.5625 C-16.26523075 2.68609913 -10.31533205 -0.63155094 0 0 Z " fill="#3B3B3B" transform="translate(417,240)"/>
<path d="M0 0 C3.29129747 3.29129747 5.02640816 5.83717134 5.5859375 10.52734375 C5.57820313 11.71457031 5.57046875 12.90179688 5.5625 14.125 C5.57410156 15.90197266 5.57410156 15.90197266 5.5859375 17.71484375 C5.02341957 22.61757353 3.47194184 25.9387371 -0.0625 29.375 C-6.24541618 33.45010385 -11.32635762 34.74707128 -18.625 34.6875 C-19.41600098 34.68322998 -20.20700195 34.67895996 -21.02197266 34.67456055 C-28.99198165 34.44322593 -34.74797933 32.32676508 -40.375 26.5625 C-43.66224338 21.13140225 -43.38023823 15.35265736 -42.8125 9.1875 C-41.1133847 3.79887718 -37.36202882 0.2811796 -32.8125 -2.8125 C-22.84380966 -5.10299388 -8.8154796 -5.68108685 0 0 Z " fill="#FBFBFB" transform="translate(302.8125,146.8125)"/>
<path d="M0 0 C1.02577148 0.00676758 1.02577148 0.00676758 2.07226562 0.01367188 C3.73571604 0.0253044 5.3991205 0.04323306 7.0625 0.0625 C5.76031765 12.92716357 1.16477456 22.79360119 -8.9375 31.0625 C-16.26851464 36.97926379 -23.79682773 36.96440669 -32.9375 36.0625 C-39.7178449 34.8463429 -44.09980766 30.75866411 -48.9375 26.0625 C-45.09267778 14.86151283 -33.98323742 9.00970557 -23.9375 4.0625 C-16.12097891 0.73558602 -8.48173179 -0.07505957 0 0 Z " fill="#3D3D3D" transform="translate(179.9375,283.9375)"/>
<path d="M0 0 C4.29 0 8.58 0 13 0 C15.64 7.92 18.28 15.84 21 24 C21.99 21.36 22.98 18.72 24 16 C26 10.66666667 28 5.33333333 30 0 C34.29 0 38.58 0 43 0 C43 12.87 43 25.74 43 39 C40.36 39 37.72 39 35 39 C34.05779874 33.47291389 33.87883851 28.16241648 33.9375 22.5625 C33.94201172 21.73556641 33.94652344 20.90863281 33.95117188 20.05664062 C33.96284189 18.03772854 33.98077282 16.01885426 34 14 C33.6443396 15.02939697 33.6443396 15.02939697 33.28149414 16.07958984 C32.20990817 19.17855029 31.13623074 22.27678206 30.0625 25.375 C29.68931641 26.45523437 29.31613281 27.53546875 28.93164062 28.6484375 C28.57392578 29.6796875 28.21621094 30.7109375 27.84765625 31.7734375 C27.51773682 32.72653809 27.18781738 33.67963867 26.84790039 34.66162109 C26 37 26 37 25 39 C22.69 39 20.38 39 18 39 C14.58542796 31.1073007 11.63178691 23.1877815 9 15 C8.67 22.92 8.34 30.84 8 39 C5.36 39 2.72 39 0 39 C0 26.13 0 13.26 0 0 Z " fill="#454545" transform="translate(166,432)"/>
<path d="M0 0 C14.39813202 2.19632522 25.71568605 10.66147006 35.125 21.4375 C37 24 37 24 37 26 C37.66 26 38.32 26 39 26 C43.64720217 35.45515662 47.15076273 43.40138014 47 54 C44.68756208 54.02685412 42.3750373 54.04632841 40.0625 54.0625 C38.77472656 54.07410156 37.48695312 54.08570313 36.16015625 54.09765625 C33 54 33 54 32 53 C31.75045995 51.56589632 31.52607358 50.12739928 31.3125 48.6875 C29.30998784 38.33377046 24.02363788 28.37170083 15.421875 22.12890625 C10.46809345 18.87375745 5.54497867 16.09476972 0 14 C0 9.38 0 4.76 0 0 Z " fill="#414141" transform="translate(0,351)"/>
<path d="M0 0 C0 12.21 0 24.42 0 37 C-11.22 37 -22.44 37 -34 37 C-31.61480197 23.88141084 -27.60868706 15.28517059 -17 7 C-5.70410959 0 -5.70410959 0 0 0 Z " fill="#000000" transform="translate(512,368)"/>
<path d="M0 0 C3.96 0 7.92 0 12 0 C13.85333978 5.39280925 15.70470097 10.78629198 17.55419922 16.18041992 C18.18418359 18.01687153 18.81471654 19.85313505 19.44580078 21.68920898 C20.35071423 24.32226563 21.25367844 26.95598357 22.15625 29.58984375 C22.44060913 30.41588608 22.72496826 31.24192841 23.01794434 32.09300232 C25 37.88612829 25 37.88612829 25 39 C21.7 39 18.4 39 15 39 C14.34 36.03 13.68 33.06 13 30 C8.38 30 3.76 30 -1 30 C-1.99 32.97 -2.98 35.94 -4 39 C-6.97 39 -9.94 39 -13 39 C-10.80308143 30.23835822 -7.8960957 21.79594071 -4.8125 13.3125 C-4.34401174 12.01381225 -3.8759104 10.71498485 -3.40820312 9.41601562 C-2.27591396 6.27595598 -1.13977817 3.13734732 0 0 Z " fill="#454646" transform="translate(235,432)"/>
<path d="M0 0 C2.64 0 5.28 0 8 0 C8 5.61 8 11.22 8 17 C8.66 17 9.32 17 10 17 C10.2371875 16.45601563 10.474375 15.91203125 10.71875 15.3515625 C12.33385221 12.38725905 14.3445389 9.97135087 16.5 7.375 C17.2940625 6.41335938 18.088125 5.45171875 18.90625 4.4609375 C22.67921678 0.02629371 22.67921678 0.02629371 25.3828125 -0.1953125 C26.28773438 -0.17210937 27.19265625 -0.14890625 28.125 -0.125 C29.03507812 -0.10695313 29.94515625 -0.08890625 30.8828125 -0.0703125 C31.58148438 -0.04710937 32.28015625 -0.02390625 33 0 C30.28653086 4.93358025 26.71037861 8.53043662 22.765625 12.5 C20.72321574 14.81767921 20.72321574 14.81767921 21.21948242 17.38183594 C22.04327716 20.14516868 23.09009297 22.02281338 24.72265625 24.390625 C25.26083984 25.18210937 25.79902344 25.97359375 26.35351562 26.7890625 C26.91748047 27.60117187 27.48144531 28.41328125 28.0625 29.25 C29.18019531 30.87896797 30.29618014 32.50911138 31.41015625 34.140625 C31.90652588 34.85766602 32.40289551 35.57470703 32.91430664 36.31347656 C34 38 34 38 34 39 C30.33295141 40.05330119 27.63529755 40.25117287 24 39 C20.68702066 35.60971023 18.40731553 31.44834364 16.03125 27.37890625 C14.39569442 23.97444783 14.39569442 23.97444783 12 23 C11.690625 23.61875 11.38125 24.2375 11.0625 24.875 C10.375 26.25 9.6875 27.625 9 29 C8.77377919 30.70363822 8.59111527 32.41328701 8.4375 34.125 C8.35371094 35.03507812 8.26992188 35.94515625 8.18359375 36.8828125 C8.12300781 37.58148438 8.06242187 38.28015625 8 39 C5.36 39 2.72 39 0 39 C0 26.13 0 13.26 0 0 Z " fill="#454545" transform="translate(273,432)"/>
<path d="M0 0 C0 22.11 0 44.22 0 67 C-7.38590649 63.30704675 -10.77994801 55.39739928 -13.4375 47.8125 C-16.63399566 36.16120413 -16.33638966 23.96752177 -11 13 C-3.1751026 0 -3.1751026 0 0 0 Z " fill="#000000" transform="translate(340,245)"/>
<path d="M0 0 C8.91 0 17.82 0 27 0 C27 1.98 27 3.96 27 6 C26 7 26 7 22.18359375 7.09765625 C20.60153318 7.09098089 19.01948841 7.07901875 17.4375 7.0625 C16.63119141 7.05798828 15.82488281 7.05347656 14.99414062 7.04882812 C12.99606244 7.03700518 10.99802217 7.01906914 9 7 C9 9.97 9 12.94 9 16 C14.28 16 19.56 16 25 16 C25 18.31 25 20.62 25 23 C19.72 23 14.44 23 9 23 C9 25.97 9 28.94 9 32 C14.94 32 20.88 32 27 32 C27 34.31 27 36.62 27 39 C18.09 39 9.18 39 0 39 C0 26.13 0 13.26 0 0 Z " fill="#464747" transform="translate(320,432)"/>
<path d="M0 0 C2 2 2 2 3.8125 5.375 C5.67593452 8.7432458 7.81260091 10.78652841 11 13 C10.01 13 9.02 13 8 13 C7.731875 13.58136719 7.46375 14.16273438 7.1875 14.76171875 C1.36412535 25.73801373 -10.56383777 33.03877859 -22 37 C-25.05538125 37.59779198 -27.87910241 37.84651323 -31 38 C-31 33.38 -31 28.76 -31 24 C-29.205625 23.29875 -27.41125 22.5975 -25.5625 21.875 C-14.88524949 17.38327769 -4.93317781 10.95710849 0 0 Z " fill="#393939" transform="translate(259,166)"/>
<path d="M0 0 C-0.70135026 7.88731605 -5.959012 12.48250363 -11.71875 17.49609375 C-18.01425967 22.06703561 -26.54672193 21.59184846 -34 21 C-36.87109375 19.98828125 -36.87109375 19.98828125 -39 19 C-38.10806292 13.55323757 -34.28539862 11.09538153 -30 8 C-20.29131533 2.1534807 -11.27322588 -0.41752688 0 0 Z " fill="#030303" transform="translate(182,298)"/>
<path d="M0 0 C0.33 0 0.66 0 1 0 C1 20.79 1 41.58 1 63 C-2.05580444 59.18024446 -3.56597656 57.21964558 -5.1875 52.9375 C-5.51105469 52.10089844 -5.83460938 51.26429688 -6.16796875 50.40234375 C-11.04860256 36.3103729 -9.06147031 19.3693838 -3 6 C-2.01570566 3.99222395 -1.0202943 1.98972348 0 0 Z " fill="#414141" transform="translate(511,182)"/>
<path d="M0 0 C0.33 0 0.66 0 1 0 C1 5.28 1 10.56 1 16 C2.60875 16.144375 4.2175 16.28875 5.875 16.4375 C10.75 16.875 10.75 16.875 13 18 C12.54388099 19.70892588 12.08499109 21.41711229 11.625 23.125 C11.36976563 24.07632813 11.11453125 25.02765625 10.8515625 26.0078125 C10.28933954 27.98332988 9.66223432 29.94164978 8.96875 31.875 C7.84250243 35.50805667 7.31978658 39.11254306 6.875 42.875 C6.78863281 43.56335938 6.70226562 44.25171875 6.61328125 44.9609375 C6.40340434 46.63995275 6.20092913 48.31989048 6 50 C4.02 50 2.04 50 0 50 C0 33.5 0 17 0 0 Z " fill="#3F4141" transform="translate(374,203)"/>
<path d="M0 0 C17.16 0 34.32 0 52 0 C41.66868191 7.74848857 27.41187434 7.31456921 15 6 C9.7696602 4.9311464 4.89087355 3.13309127 0 1 C0 0.67 0 0.34 0 0 Z " fill="#414141" transform="translate(232,0)"/>
<path d="M0 0 C2.3203125 0.7425 2.3203125 0.7425 4.6875 1.5 C13.96192201 3.87719842 23.49713455 3.26040736 33 3 C29.31912647 5.45391569 26.55644412 5.22802759 22.3125 5.125 C21.61060547 5.11597656 20.90871094 5.10695313 20.18554688 5.09765625 C18.45688475 5.07413704 16.72839855 5.03826713 15 5 C15.99 7.97 16.98 10.94 18 14 C13.68949647 15.26779516 11.109533 14.74873745 7 13 C5.64886795 12.02418241 4.31053056 11.02970259 3 10 C2.34 10 1.68 10 1 10 C0.67 6.7 0.34 3.4 0 0 Z " fill="#353535" transform="translate(119,348)"/>
<path d="M0 0 C0.33 0 0.66 0 1 0 C1 19.14 1 38.28 1 58 C0.67 58 0.34 58 0 58 C-0.00257813 57.18015625 -0.00515625 56.3603125 -0.0078125 55.515625 C-0.12520959 52.24415952 -0.31531071 49.20382911 -1 46 C-3.97763043 43.73674754 -3.97763043 43.73674754 -7 42 C-7.6298055 39.1200712 -7.34256009 36.9851665 -7 34 C-6.505 33.505 -6.505 33.505 -6 33 C-6.28604898 31.32457024 -6.61781233 29.65614657 -7 28 C-6.34 27.67 -5.68 27.34 -5 27 C-5 26.01 -5 25.02 -5 24 C-4.34 24 -3.68 24 -3 24 C-2.67 24.99 -2.34 25.98 -2 27 C-1.34 27.33 -0.68 27.66 0 28 C0 18.76 0 9.52 0 0 Z " fill="#4B4F4E" transform="translate(187,150)"/>
<path d="M0 0 C1.51289503 0.00031716 3.0258126 0.01164445 4.53857422 0.03173828 C5.33480194 0.03456818 6.13102966 0.03739807 6.9513855 0.04031372 C9.49882935 0.05152438 12.04592383 0.07663016 14.59326172 0.10205078 C16.31851706 0.11207945 18.04377791 0.1212055 19.76904297 0.12939453 C24.00225086 0.15146656 28.23519702 0.18600212 32.46826172 0.22705078 C23.78061528 6.01881507 10.40531245 5.24180221 0.37060547 3.77392578 C-1.61500246 3.33337886 -3.57880386 2.79517716 -5.53173828 2.22705078 C-3.53173828 0.22705078 -3.53173828 0.22705078 0 0 Z " fill="#2C2C2C" transform="translate(166.53173828125,399.77294921875)"/>
<path d="M0 0 C2.31 0.33 4.62 0.66 7 1 C6.57045059 7.25107435 5.98598493 13.04204521 4 19 C2.68 19 1.36 19 0 19 C0 12.73 0 6.46 0 0 Z " fill="#020302" transform="translate(375,233)"/>
<path d="M0 0 C0 1.98 0 3.96 0 6 C-4.62 6 -9.24 6 -14 6 C-14.33 4.35 -14.66 2.7 -15 1 C-12.68753088 0.83290546 -10.37502385 0.66633538 -8.0625 0.5 C-6.77472656 0.4071875 -5.48695312 0.314375 -4.16015625 0.21875 C-1 0 -1 0 0 0 Z " fill="#333333" transform="translate(47,399)"/>
<path d="M0 0 C2.67550292 2.67550292 2.83209389 4.94879894 3.625 8.625 C3.88539063 9.81351562 4.14578125 11.00203125 4.4140625 12.2265625 C4.70410156 13.59941406 4.70410156 13.59941406 5 15 C2.36 15 -0.28 15 -3 15 C-2.35812082 9.86496656 -1.31727753 5.0056546 0 0 Z " fill="#1DDCAD" transform="translate(240,440)"/>
<path d="M0 0 C0.33 0.66 0.66 1.32 1 2 C0.67 2.99 0.34 3.98 0 5 C-4.95 5 -9.9 5 -15 5 C-14.67 3.68 -14.34 2.36 -14 1 C-9.38 0.67 -4.76 0.34 0 0 Z " fill="#303030" transform="translate(478,400)"/>
<path d="M0 0 C0.66 0 1.32 0 2 0 C1.34 3.96 0.68 7.92 0 12 C-0.33 12 -0.66 12 -1 12 C-1.02687279 10.18757948 -1.04633715 8.37504767 -1.0625 6.5625 C-1.07410156 5.55316406 -1.08570313 4.54382813 -1.09765625 3.50390625 C-1 1 -1 1 0 0 Z " fill="#464B4A" transform="translate(185,284)"/>
<path d="M0 0 C3 3.75 3 3.75 3 6 C1.35 5.67 -0.3 5.34 -2 5 C-2 3.68 -2 2.36 -2 1 C-1.34 0.67 -0.68 0.34 0 0 Z " fill="#313131" transform="translate(377,228)"/>
</svg>
